<svg version="1.2" xmlns="http://www.w3.org/2000/svg" viewBox="0 0 227 72" width="227" height="72">
	<title>about-decor4-svg</title>
	<defs>
		<filter x="-50%" y="-50%" width="200%" height="200%" id="f1"> <feGaussianBlur stdDeviation="24.5"/> </filter>
	</defs>
	<style>
		.s0 { filter: url(#f1);fill: #000000 } 
		.s1 { fill: #fffdfa } 
		.s2 { fill: #696d76 } 
		.s3 { fill: #212832 } 
		.s4 { fill: #4ab5e3 } 
		.s5 { fill: #ffffff } 
		.s6 { fill: none;stroke: #4ab5e3;stroke-linecap: round;stroke-linejoin: round } 
	</style>
	<g id="Layer" style="opacity: .1">
		<path id="Layer" class="s0" d="m1 22c0-7.7 6.3-14 14-14h198c7.7 0 14 6.3 14 14v42c0 7.7-6.3 14-14 14h-198c-7.7 0-14-6.3-14-14z"/>
	</g>
	<g id="Layer">
		<path id="Layer" class="s1" d="m1 9c0-4.4 3.6-8 8-8h210c4.4 0 8 3.6 8 8v54c0 4.4-3.6 8-8 8h-210c-4.4 0-8-3.6-8-8z"/>
	</g>
	<path id="Layer" fill-rule="evenodd" class="s2" d="m67.5 42.3l2.4 4h0.1l2.5-4h1.2l-3.2 5.1v3.6h-1v-3.6l-3.2-5.1zm6.2 5.5c0-2.1 1.2-3.4 2.9-3.4 1.8 0 3 1.3 3 3.4 0 2-1.2 3.3-3 3.3-1.7 0-2.9-1.3-2.9-3.3zm4.9 0c0-1.4-0.6-2.5-2-2.5-1.3 0-1.9 1.1-1.9 2.5 0 1.3 0.6 2.4 1.9 2.4 1.4 0 2-1.1 2-2.4zm6.6-3.3h1.1v6.5h-1.1v-1.1c-0.3 0.7-1 1.2-2 1.2-1.2 0-2.1-0.8-2.1-2.5v-4.1h1v4c0 1 0.6 1.6 1.5 1.6 0.7 0 1.6-0.5 1.6-1.8zm2.9 0h1v1c0.3-0.6 1-1.1 1.7-1.1 0.2 0 0.5 0 0.6 0v1.1c-0.1-0.1-0.4-0.1-0.6-0.1-1 0-1.7 0.6-1.7 1.5v4.2h-1zm7.5 4.7c0-1.5 1.4-1.8 2.6-2 1.2-0.1 1.7-0.1 1.7-0.6 0-0.8-0.5-1.3-1.4-1.3-1 0-1.5 0.5-1.7 1l-1-0.4c0.5-1.2 1.7-1.5 2.6-1.5 0.9 0 2.5 0.2 2.5 2.3v4.3h-1v-0.9h-0.1c-0.2 0.5-0.8 1.1-1.9 1.1-1.3 0-2.3-0.8-2.3-2zm4.3-0.6v-0.9c-0.2 0.2-1.4 0.3-1.8 0.4-0.8 0.1-1.5 0.3-1.5 1.1 0 0.7 0.6 1.1 1.4 1.1 1.2 0 1.9-0.8 1.9-1.7zm2.5-0.8c0-2 1.2-3.4 2.9-3.4 1.4 0 2.5 0.8 2.6 2h-1c-0.1-0.6-0.7-1.1-1.5-1.1-1.2 0-2 1-2 2.4 0 1.6 0.8 2.5 2 2.5 0.7 0 1.3-0.4 1.5-1.1h1c-0.1 1.2-1.1 2.1-2.5 2.1-1.9 0-3-1.5-3-3.4zm6.7 0c0-2 1.2-3.4 2.9-3.4 1.4 0 2.5 0.8 2.6 2h-1c-0.1-0.6-0.7-1.1-1.5-1.1-1.2 0-2 1-2 2.4 0 1.6 0.8 2.5 2 2.5 0.7 0 1.3-0.4 1.5-1.1h1c-0.1 1.2-1.1 2.1-2.5 2.1-1.9 0-3-1.5-3-3.4zm6.7 0c0-2.1 1.2-3.4 3-3.4 1.7 0 2.9 1.3 2.9 3.4 0 2-1.2 3.4-2.9 3.4-1.8 0-3-1.4-3-3.4zm4.9 0c0-1.3-0.6-2.5-1.9-2.5-1.4 0-2 1.2-2 2.5 0 1.3 0.6 2.4 2 2.4 1.3 0 1.9-1.1 1.9-2.4zm6.7-3.3h1v6.5h-1v-1.1h-0.1c-0.3 0.7-0.9 1.2-1.9 1.2-1.2 0-2.1-0.8-2.1-2.5v-4.1h1v4.1c0 0.9 0.6 1.5 1.4 1.5 0.8 0 1.7-0.5 1.7-1.8zm3.8 6.6h-1v-6.6h1v1.1h0.1c0.3-0.7 0.9-1.1 1.9-1.1 1.3 0 2.2 0.8 2.2 2.4v4.2h-1v-4.1c0-1-0.6-1.6-1.5-1.6-0.9 0-1.7 0.6-1.7 1.7zm8.9-5.6h-1.4v3.8c0 0.8 0.4 1 0.9 1q0.3-0.1 0.4-0.1l0.2 0.9c-0.1 0.1-0.4 0.1-0.7 0.1-0.9 0-1.8-0.5-1.8-1.7v-4h-1v-0.9h1v-1.6h1v1.6h1.4zm4.6 3.8c0-1.5 1.3-1.7 2.5-1.9 1.2-0.1 1.7-0.1 1.7-0.6 0-0.9-0.4-1.3-1.4-1.3-0.9 0-1.5 0.5-1.7 0.9l-0.9-0.3c0.5-1.2 1.6-1.5 2.6-1.5 0.8 0 2.4 0.2 2.4 2.3v4.3h-1v-0.9c-0.2 0.4-0.8 1-2 1-1.2 0-2.2-0.7-2.2-2zm4.2-0.5v-0.9c-0.2 0.2-1.3 0.3-1.7 0.4-0.8 0.1-1.5 0.3-1.5 1.1 0 0.7 0.6 1 1.4 1 1.2 0 1.8-0.8 1.8-1.6zm2.5-0.8c0-2 1.2-3.4 3-3.4 1.4 0 2.4 0.8 2.6 2h-1c-0.2-0.6-0.7-1.1-1.6-1.1-1.2 0-1.9 0.9-1.9 2.4 0 1.5 0.7 2.5 1.9 2.5 0.8 0 1.4-0.4 1.6-1.1h1c-0.2 1.1-1.1 2-2.6 2-1.8 0-3-1.4-3-3.3zm9.9-2.5h-1.4v3.8c0 0.9 0.4 1 0.9 1q0.3 0 0.4 0l0.2 0.9c-0.1 0-0.4 0.1-0.7 0.1-0.9 0-1.8-0.6-1.8-1.7v-4.1h-1v-0.9h1v-1.5h1v1.5h1.4zm1.5-0.8h1v6.5h-1zm-0.2-1.7c0-0.4 0.3-0.7 0.7-0.7 0.4 0 0.7 0.3 0.7 0.7 0 0.3-0.3 0.7-0.7 0.7-0.4 0-0.7-0.4-0.7-0.7zm6 8.3h-1l-2.4-6.6h1l1.9 5.3 1.8-5.3h1.1zm3.3-1.8c0-1.5 1.3-1.8 2.5-1.9 1.2-0.2 1.7-0.2 1.7-0.6v-0.1c0-0.8-0.5-1.3-1.4-1.3-1 0-1.5 0.5-1.7 1l-1-0.4c0.6-1.1 1.7-1.5 2.7-1.5 0.8 0 2.4 0.3 2.4 2.3v4.3h-1v-0.8h-0.1c-0.2 0.4-0.8 1-1.9 1-1.3 0-2.2-0.7-2.2-2zm4.2-0.5v-0.9c-0.2 0.2-1.3 0.3-1.8 0.3-0.7 0.1-1.4 0.4-1.4 1.1 0 0.7 0.5 1.1 1.3 1.1 1.2 0 1.9-0.8 1.9-1.6zm5.7-3.4h-1.4v3.9c0 0.8 0.4 1 0.8 1q0.4-0.1 0.5-0.1l0.2 0.9c-0.1 0.1-0.4 0.1-0.8 0.1-0.8 0-1.7-0.5-1.7-1.7v-4.1h-1v-0.8h1v-1.6h1v1.6h1.4zm1.1 2.5c0-2 1.2-3.4 3-3.4 1.3 0 2.8 0.8 2.8 3.2v0.5h-4.8c0.1 1.4 0.9 2.1 2.1 2.1 0.7 0 1.3-0.3 1.6-1l1 0.3c-0.3 1-1.3 1.6-2.6 1.6-1.9 0-3.1-1.3-3.1-3.3zm4.7-0.6c0-1.1-0.7-1.9-1.7-1.9-1.2 0-1.9 0.9-2 1.9zm2.3 0.5c0-2 1.1-3.3 2.8-3.3 1.2 0 1.6 0.7 1.9 1.1v-3.2h1v8.7h-0.9v-1h-0.1c-0.3 0.3-0.7 1.1-2 1.1-1.6 0-2.7-1.3-2.7-3.4zm4.8 0c0-1.4-0.7-2.4-1.9-2.4-1.3 0-1.9 1-1.9 2.4 0 1.4 0.6 2.5 1.9 2.5 1.2 0 1.9-1 1.9-2.5z"/>
	<path id="Layer" fill-rule="evenodd" class="s3" d="m73.9 24.3c-0.3-1.3-1.2-2-2.5-2-1.6 0-2.8 1.3-2.8 3.6 0 2.3 1.2 3.6 2.8 3.6 1.3 0 2.2-0.7 2.5-1.9h1.8c-0.3 2-1.9 3.5-4.3 3.5-2.7 0-4.7-1.9-4.7-5.2 0-3.3 2-5.2 4.7-5.2 2.3 0 4 1.3 4.3 3.6zm3.2 2.9c0-2.4 1.4-3.9 3.6-3.9 2.3 0 3.7 1.5 3.7 3.9 0 2.4-1.4 3.9-3.7 3.9-2.2 0-3.6-1.5-3.6-3.9zm5.5 0c0-1.4-0.7-2.5-1.9-2.5-1.2 0-1.8 1.1-1.8 2.5 0 1.4 0.6 2.5 1.8 2.5 1.2 0 1.9-1.1 1.9-2.5zm5.1 3.8h-1.8v-7.6h1.7v1.3h0.1c0.4-0.9 1.1-1.4 2.3-1.4 1.6 0 2.6 1 2.6 2.8v4.9h-1.8v-4.6c0-1-0.5-1.6-1.5-1.6-0.9 0-1.6 0.6-1.6 1.7zm6.7 1.1l1.6-0.4c0.2 0.5 0.7 1 1.8 1 1 0 1.8-0.5 1.8-1.6v-1.4h-0.1c-0.3 0.5-0.9 1.2-2.2 1.2-1.8 0-3.2-1.2-3.2-3.7 0-2.5 1.4-3.9 3.2-3.9 1.3 0 1.9 0.8 2.2 1.4h0.1v-1.3h1.7v7.7c0 2-1.5 2.9-3.5 2.9-2 0-3.1-0.8-3.4-1.9zm5.2-4.9c0-1.5-0.7-2.4-1.8-2.4-1.2 0-1.8 1-1.8 2.4 0 1.4 0.6 2.3 1.8 2.3 1.1 0 1.8-0.9 1.8-2.3zm3.6-3.8h1.7v1.3h0.1c0.3-0.9 1-1.4 1.9-1.4 0.2 0 0.5 0 0.6 0v1.7c-0.1-0.1-0.5-0.1-0.8-0.1-1 0-1.7 0.7-1.7 1.6v4.5h-1.8zm5 5.5c0-1.7 1.4-2.1 2.9-2.3 1.4-0.1 1.9-0.2 1.9-0.7 0-0.8-0.4-1.2-1.3-1.2-0.9 0-1.4 0.5-1.5 1l-1.7-0.3c0.4-1.4 1.6-2.1 3.2-2.1 1.5 0 3.1 0.6 3.1 2.7v5.1h-1.7v-1.1h-0.1c-0.3 0.7-1 1.2-2.2 1.2-1.5 0-2.6-0.8-2.6-2.3zm4.8-0.6v-0.9c-0.2 0.2-1.2 0.3-1.6 0.4-0.8 0.1-1.4 0.4-1.4 1.1 0 0.7 0.5 1 1.3 1 1 0 1.7-0.7 1.7-1.6zm7.4-3.5h-1.5v4c0 0.7 0.4 0.9 0.8 0.9 0.3 0 0.5-0.1 0.6-0.1l0.3 1.4c-0.2 0.1-0.6 0.2-1.1 0.2-1.3 0-2.4-0.7-2.4-2.1v-4.3h-1v-1.4h1v-1.8h1.8v1.8h1.5zm6.4-1.4h1.8v7.7h-1.7v-1.4h-0.1c-0.4 0.9-1.2 1.5-2.3 1.5-1.5 0-2.6-1.1-2.6-2.9v-4.9h1.8v4.6c0 1 0.6 1.6 1.5 1.6 0.8 0 1.6-0.6 1.6-1.7zm5.5 7.6h-1.8v-10.2h1.8zm1.5-2.1c0-1.8 1.4-2.2 2.9-2.4 1.3-0.1 1.8-0.1 1.8-0.6v-0.1c0-0.7-0.4-1.1-1.3-1.1-0.8 0-1.3 0.4-1.5 0.9l-1.7-0.2c0.4-1.4 1.6-2.1 3.2-2.1 1.5 0 3.1 0.6 3.1 2.6v5.1h-1.7v-1c-0.4 0.6-1.1 1.2-2.3 1.2-1.4 0-2.5-0.8-2.5-2.3zm4.7-0.6v-0.9c-0.2 0.2-1.1 0.3-1.6 0.3-0.8 0.2-1.4 0.4-1.4 1.1 0 0.7 0.5 1 1.3 1 1.1 0 1.7-0.7 1.7-1.5zm7.5-3.5h-1.5v3.9c0 0.7 0.3 0.9 0.8 0.9 0.2 0 0.4 0 0.5-0.1l0.3 1.4c-0.2 0.1-0.5 0.2-1.1 0.2-1.3 0.1-2.4-0.6-2.3-2.1v-4.2h-1.1v-1.4h1.1v-1.9h1.8v1.9h1.5zm1.5-1.4h1.8v7.6h-1.8zm-0.2-2c0-0.6 0.5-1 1.1-1 0.5 0 1 0.4 1 1 0 0.5-0.5 0.9-1 0.9-0.6 0-1.1-0.4-1.1-0.9zm3.5 5.9c0-2.4 1.4-4 3.7-4 2.2 0 3.6 1.6 3.6 4 0 2.3-1.4 3.9-3.6 3.9-2.3 0-3.7-1.6-3.7-3.9zm5.5 0c0-1.4-0.6-2.6-1.8-2.6-1.3 0-1.9 1.2-1.9 2.6 0 1.4 0.6 2.5 1.9 2.5 1.2 0 1.8-1.1 1.8-2.5zm5.1 3.8h-1.8v-7.7h1.8v1.3c0.4-0.8 1.2-1.4 2.3-1.4 1.6 0 2.6 1.1 2.6 2.9v4.9h-1.8v-4.6c0-1-0.5-1.7-1.4-1.7-1 0-1.7 0.7-1.7 1.8zm11.2-5.5c-0.2-0.5-0.6-0.9-1.4-0.9-0.8 0-1.4 0.3-1.4 0.9 0 0.4 0.3 0.7 1.1 0.8l1.3 0.3c1.5 0.3 2.2 1 2.2 2.1 0 1.4-1.4 2.4-3.3 2.4-1.9 0-3-0.8-3.3-2.2l1.8-0.2c0.1 0.7 0.7 1.1 1.5 1.1 0.9 0 1.4-0.4 1.4-0.9q0-0.7-1-0.9l-1.3-0.3c-1.5-0.3-2.2-1-2.2-2.1 0-1.4 1.3-2.4 3.1-2.4 1.8 0 2.9 0.9 3.1 2.2z"/>
	<path id="Layer" class="s4" d="m16 22c0-3.3 2.7-6 6-6h28c3.3 0 6 2.7 6 6v28c0 3.3-2.7 6-6 6h-28c-3.3 0-6-2.7-6-6z"/>
	<path id="Layer" class="s5" d="m36 46c-5.5 0-10-4.5-10-10 0-5.5 4.5-10 10-10 5.5 0 10 4.5 10 10 0 5.5-4.5 10-10 10z"/>
	<path id="Layer" fill-rule="evenodd" class="s6" d="m31 36l3.5 3.5 6.5-6.5"/>
</svg>