<svg version="1.2" xmlns="http://www.w3.org/2000/svg" viewBox="0 0 283 221" width="283" height="221">
	<title>feature-pay-svg</title>
	<style>
		.s0 { fill: #ffffff } 
		.s1 { fill: #f2f2fa } 
		.s2 { fill: #3362ab } 
		.s3 { fill: none;stroke: #3362ab;stroke-width: .4 } 
		.s4 { fill: #c9191b } 
		.s5 { fill: #263577 } 
		.s6 { fill: #2199d6 } 
		.s7 { fill: #252c5e } 
		.s8 { fill: #f9b50b } 
		.s9 { fill: #c8191c } 
		.s10 { fill: #137abe } 
		.s11 { fill: #f9ea63 } 
		.s12 { fill: #212832 } 
	</style>
	<g id="Layer">
		<path id="Layer" class="s0" d="m2 11c0-5.5 4.5-10 10-10h261c5.5 0 10 4.5 10 10v200c0 5.5-4.5 10-10 10h-261c-5.5 0-10-4.5-10-10z"/>
	</g>
	<path id="Layer" class="s1" d="m111 83c0-2.2 1.8-4 4-4h55c2.2 0 4 1.8 4 4v40c0 2.2-1.8 4-4 4h-55c-2.2 0-4-1.8-4-4z"/>
	<path id="Layer" class="s2" d="m142.1 111.9c2.4-2.2 3.9-5.4 3.9-8.9 0-3.5-1.5-6.7-3.9-8.9-2.2-1.9-5-3.1-8.1-3.1-6.6 0-12 5.4-12 12 0 6.7 5.4 12 12 12 3.1 0 5.9-1.2 8.1-3.1z"/>
	<path id="Layer" class="s2" d="m142.1 111.9c2.4-2.2 3.9-5.4 3.9-8.9 0-3.6-1.5-6.7-3.9-8.9"/>
	<path id="Layer" fill-rule="evenodd" class="s3" d="m142.1 111.9c2.4-2.2 3.9-5.4 3.9-8.9 0-3.6-1.5-6.7-3.9-8.9"/>
	<path id="Layer" class="s4" d="m150.1 91c-3.1 0-5.9 1.2-8 3.1-0.5 0.3-0.8 0.8-1.2 1.2h2.4c0.3 0.4 0.6 0.9 0.9 1.3h-4.3c-0.2 0.4-0.5 0.8-0.7 1.3h5.7c0.2 0.4 0.4 0.8 0.5 1.2h-6.7c-0.1 0.5-0.2 0.9-0.3 1.3h7.3c0.2 0.8 0.3 1.6 0.3 2.5q0 2-0.7 3.8h-6.6c0.1 0.5 0.3 0.9 0.5 1.3h5.6c-0.2 0.5-0.4 0.9-0.7 1.3h-4.2c0.2 0.4 0.5 0.9 0.9 1.2h2.4c-0.4 0.5-0.8 0.9-1.2 1.3 2.1 1.9 4.9 3.1 8 3.1 6.7 0 12-5.4 12-12 0.2-6.6-5.2-11.9-11.9-11.9z"/>
	<path id="Layer" class="s0" d="m132.5 105.9h-1.5l0.9-4.7-2 4.7h-1.4l-0.2-4.6-0.9 4.6h-1.3l1.1-6.1h2.3l0.2 3.8 1.6-3.8h2.4z"/>
	<path id="Layer" class="s0" d="m149.3 105.9q-0.6 0.2-1.1 0.2c-0.8 0-1.2-0.4-1.2-1.1 0-0.1 0-0.3 0-0.4l0.1-0.5 0.1-0.4 0.7-3.8h1.4l-0.2 1.1h0.8l-0.2 1.2h-0.8l-0.3 2.1c0 0.1 0 0.2 0 0.2q0 0.4 0.5 0.4 0.3 0 0.3-0.1z"/>
	<path id="Layer" class="s0" d="m153.6 101c-0.2 0-0.2 0-0.2 0q-0.1 0-0.2 0 0 0-0.1 0c-0.5 0-0.9 0.2-1.4 0.8l0.2-0.8h-1.2l-0.9 5h1.5c0.5-3.1 0.7-3.6 1.4-3.6q0.1 0 0.2 0l0.2 0.1z"/>
	<path id="Layer" class="s0" d="m143.3 102.6q0 0.9 1.1 1.4c0.7 0.2 0.7 0.3 0.7 0.5 0 0.3-0.2 0.5-0.9 0.5q-0.6 0-1.3-0.2l-0.2 1.1h0.1l0.2 0.1c0.1 0 0.3 0 0.4 0 0.4 0 0.7 0.1 0.8 0.1 1.6 0 2.4-0.5 2.4-1.6 0-0.7-0.3-1.1-1.1-1.4-0.6-0.3-0.7-0.4-0.7-0.6q0-0.4 0.8-0.4c0.3 0 0.7 0 1.1 0.1l0.1-1.2c-0.3 0-0.9-0.1-1.3-0.1-1.6 0-2.2 0.8-2.2 1.7z"/>
	<path id="Layer" fill-rule="evenodd" class="s0" d="m136.1 105.9l0.1-0.5q-0.6 0.6-1.6 0.6c-0.8 0-1.3-0.6-1.3-1.4 0-1.2 0.9-1.9 2.6-1.9 0.2 0 0.4 0 0.6 0.1 0.1-0.2 0.1-0.2 0.1-0.3 0-0.3-0.3-0.5-1-0.5-0.4 0-0.9 0.1-1.2 0.2h-0.2l-0.1 0.1 0.2-1.1c0.8-0.2 1.2-0.3 1.8-0.3 1.2 0 1.9 0.5 1.9 1.5 0 0.2 0 0.4-0.1 0.9l-0.3 1.8-0.1 0.3v0.5zm0.2-2.2q-0.3 0-0.3 0-1.3 0-1.3 0.8c0 0.3 0.2 0.5 0.5 0.5 0.6-0.1 1-0.6 1.1-1.3z"/>
	<path id="Layer" fill-rule="evenodd" class="s0" d="m142.3 105.9q-0.8 0.1-1.5 0.1c-1.7 0-2.6-0.7-2.6-2.2 0-1.7 1.1-3 2.6-3 1.2 0 2.1 0.7 2.1 1.8 0 0.4-0.1 0.7-0.2 1.2h-3c0 0.1 0 0.2 0 0.2 0 0.5 0.4 0.8 1.3 0.8 0.5 0 1-0.1 1.6-0.3zm-0.8-3c0-0.1 0-0.1 0-0.2 0-0.4-0.2-0.6-0.7-0.6-0.5 0-0.8 0.3-0.9 0.8z"/>
	<path id="Layer" fill-rule="evenodd" class="s0" d="m158.3 103.7c-0.3 1.6-1.4 2.4-3 2.4-1.7 0-2.3-1-2.3-2.3 0-1.8 1.1-2.9 2.9-2.9 1.6 0 2.4 1 2.4 2.2 0 0.3 0 0.3 0 0.6zm-1.6-0.6c0-0.5-0.2-1.1-0.9-1.1-0.7 0-1.2 0.9-1.2 1.8 0 0.7 0.4 1.1 0.9 1.1 0.3 0 1-0.4 1.2-1.2q0-0.3 0-0.6z"/>
	<path id="Layer" class="s1" d="m111 149c0-2.2 1.8-4 4-4h55c2.2 0 4 1.8 4 4v40c0 2.2-1.8 4-4 4h-55c-2.2 0-4-1.8-4-4z"/>
	<path id="Layer" fill-rule="evenodd" class="s5" d="m138.8 166.7c0.2 0.3 0.3 0.8 0.2 1.4-0.2 1.4-1.1 2.1-2.5 2.1h-0.8c-0.1 0-0.3 0.2-0.3 0.3l-0.2 1.6q-0.1 0.2-0.3 0.2h-1.1c-0.1 0-0.2-0.1-0.2-0.2l0.9-5.7q0.1-0.3 0.3-0.3h2.3c0.7 0 1.3 0.2 1.7 0.6zm-1.5 0.8c-0.2-0.2-0.6-0.2-1-0.2h-0.1c-0.1 0-0.2 0.1-0.2 0.2l-0.3 1.5h0.3c0.6 0 1.2 0 1.3-0.8q0-0.4 0-0.7z"/>
	<path id="Layer" fill-rule="evenodd" class="s5" d="m143.9 168.4l-0.6 3.6q-0.1 0.3-0.3 0.3h-1c-0.1 0-0.2-0.1-0.2-0.2l0.1-0.3c0 0-0.5 0.6-1.5 0.6-0.5 0-1-0.2-1.3-0.5-0.4-0.5-0.5-1-0.4-1.7 0.2-1.2 1.2-2.1 2.4-2.1 0.5 0 1 0.2 1.2 0.5l0.1 0.1v-0.3q0.1-0.2 0.2-0.2h1.1c0.1 0 0.2 0.1 0.2 0.2zm-1.9 1.2q-0.2-0.3-0.7-0.3c-0.6 0-1.1 0.4-1.2 1q-0.1 0.4 0.2 0.7 0.2 0.3 0.7 0.3c0.6 0 1.1-0.4 1.2-1 0.1-0.3 0-0.6-0.2-0.7z"/>
	<path id="Layer" class="s5" d="m149.3 168.2h-1.1q-0.1 0-0.2 0.2l-1.5 2.2-0.6-2.1q-0.1-0.2-0.3-0.2h-1.1c-0.1 0-0.2 0.1-0.1 0.2l1.2 3.5-1.1 1.5c-0.1 0.1 0 0.3 0.2 0.3h1q0.2 0 0.3-0.1l3.5-5.2c0.1-0.1 0-0.3-0.2-0.3z"/>
	<path id="Layer" fill-rule="evenodd" class="s6" d="m154.6 166.7c0.3 0.3 0.4 0.8 0.3 1.4-0.3 1.4-1.1 2.1-2.6 2.1h-0.7c-0.2 0-0.3 0.2-0.3 0.3l-0.3 1.6c0 0.2-0.1 0.2-0.2 0.2h-1.1c-0.2 0-0.3-0.1-0.3-0.2l0.9-5.7q0.1-0.3 0.3-0.3h2.3c0.8 0 1.3 0.2 1.7 0.6zm-1.5 0.8c-0.2-0.2-0.5-0.2-0.9-0.2h-0.2c-0.1 0-0.2 0.1-0.2 0.2l-0.3 1.5h0.3c0.6 0 1.2 0 1.3-0.8q0.1-0.4 0-0.7z"/>
	<path id="Layer" fill-rule="evenodd" class="s6" d="m159.8 168.4l-0.6 3.6q-0.1 0.3-0.3 0.3h-1c-0.1 0-0.2-0.1-0.2-0.2l0.1-0.3c0 0-0.5 0.6-1.5 0.6-0.6 0-1-0.2-1.3-0.5-0.4-0.5-0.6-1-0.5-1.7 0.3-1.2 1.2-2.1 2.4-2.1 0.6 0 1.1 0.2 1.3 0.5v0.1l0.1-0.3q0.1-0.2 0.2-0.2h1c0.1 0 0.3 0.1 0.3 0.2zm-1.9 1.2q-0.2-0.3-0.7-0.3c-0.6 0-1.1 0.4-1.2 1q-0.1 0.4 0.2 0.7 0.2 0.3 0.7 0.3c0.6 0 1.1-0.4 1.2-1 0-0.3-0.1-0.6-0.2-0.7z"/>
	<path id="Layer" class="s6" d="m160.8 166.3l-0.9 5.8c0 0.1 0 0.2 0.2 0.2h0.9q0.2 0 0.3-0.2l0.9-5.8c0-0.1-0.1-0.2-0.2-0.2h-1.1c0 0-0.1 0.1-0.1 0.2z"/>
	<path id="Layer" class="s5" d="m124.3 173.4l0.2-1.1h-0.4-1.8l1.3-7.9v-0.1h0.1 3c1 0 1.8 0.2 2.1 0.6q0.3 0.3 0.3 0.7c0.1 0.2 0.1 0.5 0 0.8v0.3l0.2 0.1c0.1 0 0.3 0.1 0.4 0.2q0.2 0.3 0.2 0.6 0.1 0.4 0 1c-0.1 0.4-0.2 0.7-0.4 1-0.2 0.3-0.4 0.5-0.6 0.7-0.2 0.2-0.5 0.3-0.8 0.4-0.3 0-0.6 0.1-0.9 0.1h-0.3q-0.2 0-0.5 0.1c-0.1 0.1-0.2 0.3-0.2 0.4v0.1l-0.3 2v0.1q0 0-0.1 0h-1.5z"/>
	<path id="Layer" class="s6" d="m129.5 166.4q0 0.1-0.1 0.2c-0.4 2.1-1.7 2.8-3.5 2.8h-0.9c-0.2 0-0.4 0.1-0.4 0.3l-0.5 2.9-0.1 0.9c0 0.1 0.1 0.2 0.2 0.2h1.7q0.3 0 0.3-0.3v-0.1l0.3-1.9v-0.1c0.1-0.2 0.2-0.3 0.4-0.3h0.3c1.5 0 2.7-0.6 3-2.4q0.3-1.2-0.3-1.8-0.2-0.2-0.4-0.4z"/>
	<path id="Layer" class="s7" d="m129.1 166.3c-0.1 0-0.1-0.1-0.2-0.1-0.1 0-0.2 0-0.2 0q-0.4-0.1-0.8-0.1h-2.4q-0.1 0-0.2 0.1c-0.1 0-0.2 0.1-0.2 0.2l-0.5 3.3v0.1c0.1-0.2 0.2-0.4 0.4-0.4h0.9c1.8 0 3.1-0.7 3.5-2.7q0-0.1 0.1-0.2-0.2-0.1-0.3-0.2c-0.1 0-0.1 0-0.1 0z"/>
	<path id="Layer" class="s5" d="m125.1 166.4c0-0.1 0.1-0.2 0.2-0.2 0.1 0 0.1-0.1 0.2-0.1h2.4c0.2 0 0.6 0 0.8 0.1 0 0 0.1 0 0.2 0 0 0 0.1 0.1 0.2 0.1 0 0 0 0 0.1 0q0.1 0.1 0.3 0.2c0.1-0.8 0-1.3-0.4-1.8-0.5-0.5-1.3-0.7-2.4-0.7h-3c-0.2 0-0.4 0.2-0.4 0.4l-1.3 8c0 0.1 0.1 0.3 0.3 0.3h1.8l0.5-3z"/>
	<path id="Layer" class="s1" d="m30 83c0-2.2 1.8-4 4-4h55c2.2 0 4 1.8 4 4v40c0 2.2-1.8 4-4 4h-55c-2.2 0-4-1.8-4-4z"/>
	<path id="Layer" class="s8" d="m82 103c0 6.6-5.4 12-12 12-6.6 0-12-5.4-12-12 0-6.6 5.4-12 11.9-12 6.7 0 12.1 5.4 12.1 12z"/>
	<path id="Layer" class="s9" d="m65.9 103.1c0-0.9-0.1-1.8-0.2-2.6h-7.4c0.1-0.4 0.2-0.8 0.3-1.3h6.6q-0.2-0.6-0.5-1.2h-5.6c0.2-0.5 0.4-0.8 0.7-1.3h4.2q-0.3-0.7-0.9-1.3h-2.3c0.3-0.5 0.7-0.8 1.2-1.3-2.1-1.9-4.9-3.1-8.1-3.1-6.5 0.2-11.9 5.4-11.9 12 0 6.6 5.4 12 12 12 3.1 0 5.9-1.2 8.1-3.1 0.4-0.4 0.8-0.8 1.2-1.3h-2.5c-0.3-0.4-0.6-0.8-0.8-1.3h4.2q0.3-0.5 0.6-1.3h-5.6q-0.3-0.5-0.5-1.2h6.6c0.4-1.2 0.6-2.4 0.6-3.7z"/>
	<path id="Layer" class="s0" d="m58.2 106.1l0.2-1.1c0 0-0.2 0-0.3 0-0.4 0-0.5-0.2-0.4-0.3l0.4-2.3h0.6l0.2-1.2h-0.6l0.1-0.7h-1.3c0 0-0.7 4.2-0.7 4.7 0 0.7 0.4 1.1 1 1.1 0.4 0 0.7-0.2 0.8-0.2z"/>
	<path id="Layer" fill-rule="evenodd" class="s0" d="m60.9 101.1c1.4 0 1.8 1 1.8 1.8 0 0.4-0.1 1.2-0.1 1.2h-2.6c0 0-0.3 1.1 1.1 1.1 0.7 0 1.4-0.4 1.4-0.4l-0.3 1.3c0 0-0.4 0.2-1.3 0.2-1 0-2.2-0.5-2.2-2.3 0-1.6 1-3 2.2-2.9zm-0.9 2h1.4c0-0.1 0.2-0.9-0.5-0.9-0.7 0-0.8 0.8-0.9 0.9z"/>
	<path id="Layer" class="s0" d="m69 106.1l0.2-1.4c0 0-0.6 0.3-1.1 0.3-0.9 0-1.3-0.7-1.3-1.5 0-1.5 0.7-2.3 1.7-2.3 0.6 0 1.1 0.3 1.1 0.3l0.2-1.3c0 0-0.7-0.3-1.5-0.3-1.4 0-2.9 1.3-2.9 3.7 0 1.6 0.8 2.6 2.3 2.6 0.6 0.1 1.3-0.1 1.3-0.1z"/>
	<path id="Layer" fill-rule="evenodd" class="s0" d="m53 102.6l-0.5 3.5h-1.1l0.1-0.5c-0.1 0-0.5 0.6-1.4 0.6-0.5 0-1.2-0.2-1.2-1.4 0-1.5 1.2-1.9 2.3-1.9h0.5c0 0 0.1-0.1 0.1-0.3 0-0.4-0.4-0.5-0.8-0.5-0.9 0-1.4 0.3-1.4 0.3l0.2-1.1c0 0 0.6-0.3 1.5-0.3 0.4 0 1.7 0.1 1.7 1.6zm-1.6 1.3c-1 0-1.2 0.4-1.2 0.7 0 0.2 0.1 0.5 0.5 0.5 0.7 0 0.8-1.1 0.8-1.2q0 0-0.1 0z"/>
	<path id="Layer" class="s0" d="m54.2 106.2c0.3 0 1.9 0.1 1.9-1.7 0-1.6-1.5-1.3-1.5-1.9 0-0.3 0.2-0.4 0.6-0.4 0.2 0 0.9 0.1 0.9 0.1l0.2-1.2c0 0-0.5-0.1-1.3-0.1-0.9 0-1.9 0.3-1.9 1.6 0 1.5 1.6 1.4 1.6 1.9 0 0.4-0.4 0.5-0.7 0.5-0.6 0-1.2-0.2-1.2-0.2l-0.2 1.2c0.2 0.1 0.5 0.2 1.6 0.2z"/>
	<path id="Layer" fill-rule="evenodd" class="s0" d="m80.9 100.2l-0.9 6.1h-1.3v-0.5c0 0-0.5 0.5-1.2 0.5-1.1 0-1.6-1-1.6-2.1 0-1.6 1-3 2.2-3 0.7 0 1.2 0.6 1.2 0.6l0.2-1.8zm-2.6 2.1c-0.6 0-1.1 0.7-1.1 1.7 0 0.7 0.3 1 0.7 1 0.8 0 1.1-0.9 1.1-1.6 0-0.7-0.3-1-0.7-1.1z"/>
	<path id="Layer" class="s0" d="m44.3 106.1l0.8-4.5 0.1 4.5h0.9l1.6-4.5-0.7 4.5h1.4l1-6.1h-2l-1.3 3.8-0.1-3.8h-1.8l-1.1 6.1z"/>
	<path id="Layer" class="s0" d="m64 106.1c0.4-2.1 0.5-3.8 1.4-3.5 0.1-0.8 0.3-1.1 0.4-1.4h-0.2c-0.6 0-1.1 0.7-1.1 0.7l0.1-0.7h-1.2l-0.8 4.9z"/>
	<path id="Layer" fill-rule="evenodd" class="s0" d="m73.7 102.6l-0.5 3.5h-1.2l0.1-0.5c-0.1 0-0.5 0.6-1.4 0.6-0.5 0-1.2-0.2-1.2-1.4 0-1.5 1.2-1.9 2.3-1.9h0.5c0 0 0.1-0.1 0.1-0.3 0-0.4-0.4-0.5-0.8-0.5-0.9 0-1.4 0.3-1.4 0.3l0.2-1.1c0 0 0.6-0.3 1.5-0.3 0.4 0 1.8 0.1 1.8 1.6zm-1.7 1.3c-1 0-1.1 0.4-1.1 0.7 0 0.2 0.1 0.5 0.5 0.5 0.7 0 0.8-1.1 0.8-1.2 0 0 0 0-0.2 0z"/>
	<path id="Layer" class="s0" d="m74.7 106.1c0.3-2.1 0.4-3.8 1.3-3.5 0.2-0.8 0.3-1.1 0.5-1.4h-0.3c-0.5 0-1 0.7-1 0.7l0.1-0.7h-1.2l-0.8 4.9z"/>
	<path id="Layer" class="s1" d="m30 149c0-2.2 1.8-4 4-4h55c2.2 0 4 1.8 4 4v40c0 2.2-1.8 4-4 4h-55c-2.2 0-4-1.8-4-4z"/>
	<path id="Layer" fill-rule="evenodd" class="s2" d="m81 174.4h-3c0 0-0.3-1.3-0.5-1.7-0.4 0-3.8 0-4.1 0-0.1 0.3-0.7 1.8-0.7 1.8h-3.4l4.8-11c0.4-0.7 0.9-1 1.7-1h2.5zm-6.7-4.1h2.7c-0.1-0.6-0.7-3.5-0.7-3.5l-0.3-1c-0.1 0.4-0.4 1.1-0.4 1.1 0 0-1 2.6-1.3 3.3z"/>
	<path id="Layer" class="s2" d="m69.5 170.5c0 2.5-2.2 4.1-5.6 4.1-1.5 0-2.9-0.3-3.7-0.6l0.5-2.7 0.4 0.2c1.1 0.4 1.8 0.6 3.1 0.6 0.9 0 1.9-0.3 1.9-1.1 0-0.6-0.4-0.9-1.7-1.5-1.2-0.6-2.9-1.5-2.9-3.2 0-2.4 2.3-3.9 5.5-3.9 1.3 0 2.3 0.2 2.9 0.5l-0.4 2.6-0.3-0.3c-0.5-0.2-1.3-0.4-2.4-0.4-1.2 0-1.8 0.5-1.8 1 0 0.5 0.7 0.9 1.8 1.5 1.9 0.8 2.7 1.8 2.7 3.2z"/>
	<path id="Layer" class="s8" d="m41 162.7l0.1-0.3h5c0.7 0 1.2 0.3 1.4 1l1.1 5.3c-1.1-2.8-3.7-5.1-7.6-6z"/>
	<path id="Layer" class="s2" d="m55.7 162.5l-5.1 11.9h-3.5l-2.9-9.9c2.1 1.3 3.9 3.4 4.5 4.9l0.4 1.2 3.1-8.1z"/>
	<path id="Layer" class="s2" d="m57 162.5h3.2l-2 11.9h-3.2z"/>
	<path id="Layer" class="s1" d="m192 83c0-2.2 1.8-4 4-4h55c2.2 0 4 1.8 4 4v40c0 2.2-1.8 4-4 4h-55c-2.2 0-4-1.8-4-4z"/>
	<path id="Layer" class="s10" d="m226.5 102.5l-2.8-3.1-3.1 2.8 2.8 3.1z"/>
	<path id="Layer" class="s10" d="m218.4 96.9l2.7 3.1 3.1-2.8-2.7-3.1z"/>
	<path id="Layer" class="s10" d="m228.6 107.8l-2.8-3-3 2.8 2.7 3.1z"/>
	<path id="Layer" class="s10" d="m225.4 113l-5.1-5.7 1.5-1.3-3.6-4 1.4-1.3-3.6-4 5.6-5.1 1.8 2 3.1-2.7 1.8 1.9 1.2-1.1c-0.2-0.1-0.6-0.3-0.8-0.4-1.8-0.8-3.7-1.3-5.8-1.3-7.1 0-12.9 5.8-12.9 13 0 7.2 5.8 13 13 13 2.4 0 4.5-0.6 6.4-1.7q0.9-0.6 1.7-1.1l-2.6-3z"/>
	<path id="Layer" class="s10" d="m224.1 95.4l2 2.3 2.3-2-2.1-2.4z"/>
	<path id="Layer" class="s10" d="m230.6 100.3l-2.2-2.3-2.2 2.1 2.1 2.3z"/>
	<path id="Layer" class="s10" d="m232.5 105.2l-2.1-2.3-2.3 2 2.1 2.4z"/>
	<path id="Layer" class="s10" d="m232.7 97.5l-1.6 1.4 1.4 1.6 1.5-1.4z"/>
	<path id="Layer" class="s10" d="m233.1 103.5l1.4 1.6 1.5-1.4-1.4-1.6z"/>
	<path id="Layer" class="s10" d="m229.1 94.3l1.5 1.6 1.4-1.4-1.3-1.5z"/>
	<path id="Layer" class="s10" d="m230.2 109.7l2.1 2.3 2.3-2.1-2.1-2.3z"/>
	<path id="Layer" class="s11" d="m192 149c0-2.2 1.8-4 4-4h55c2.2 0 4 1.8 4 4v40c0 2.2-1.8 4-4 4h-55c-2.2 0-4-1.8-4-4z"/>
	<path id="Layer" class="s12" d="m224.5 161h-2v6.5h-6.5v2h6.5v6.5h2v-6.5h6.5v-2h-6.5z"/>
	<path id="Layer" fill-rule="evenodd" class="s12" d="m37.2 39.8q-1.8 0-2.9 1.3-1 1.2-1 3.5 0 2.4 1 3.6 1 1.2 2.9 1.2 0.8 0 1.5-0.2 0.8-0.1 1.6-0.4v1.8q-1.5 0.6-3.4 0.6-2.8 0-4.3-1.7-1.5-1.7-1.5-4.9 0-2 0.7-3.5 0.7-1.5 2.1-2.3 1.4-0.8 3.3-0.8 1.9 0 3.6 0.8l-0.7 1.7q-0.7-0.3-1.4-0.5-0.7-0.2-1.5-0.2zm14.2 11.2h-2v-6q0-1.1-0.5-1.7-0.4-0.5-1.4-0.5-1.3 0-1.9 0.8-0.6 0.7-0.6 2.6v4.8h-2.1v-13.7h2.1v3.5q0 0.8-0.2 1.8h0.2q0.4-0.7 1.1-1.1 0.8-0.4 1.8-0.4 3.5 0 3.5 3.6zm11.5-4.9q0 2.4-1.2 3.7-1.2 1.3-3.4 1.3-1.4 0-2.4-0.6-1-0.6-1.6-1.7-0.6-1.2-0.6-2.7 0-2.4 1.2-3.7 1.3-1.3 3.5-1.3 2.1 0 3.3 1.3 1.2 1.4 1.2 3.7zm-7 0q0 3.4 2.4 3.4 2.5 0 2.5-3.4 0-3.3-2.5-3.3-1.3 0-1.9 0.8-0.5 0.9-0.5 2.5zm18 0q0 2.4-1.2 3.7-1.2 1.3-3.4 1.3-1.3 0-2.4-0.6-1-0.6-1.6-1.7-0.6-1.2-0.6-2.7 0-2.4 1.2-3.7 1.3-1.3 3.5-1.3 2.1 0 3.3 1.3 1.2 1.4 1.2 3.7zm-7 0q0 3.4 2.4 3.4 2.5 0 2.5-3.4 0-3.3-2.5-3.3-1.3 0-1.9 0.8-0.5 0.9-0.5 2.5zm15.9 2.1q0 1.4-1 2.2-1 0.7-3 0.7-1.9 0-3.1-0.5v-1.8q1.7 0.8 3.2 0.8 1.9 0 1.9-1.2 0-0.4-0.2-0.6-0.2-0.3-0.7-0.5-0.5-0.3-1.3-0.6-1.7-0.7-2.3-1.3-0.6-0.7-0.6-1.7 0-1.3 1-1.9 1-0.7 2.7-0.7 1.8 0 3.3 0.7l-0.7 1.5q-1.6-0.6-2.6-0.6-1.7 0-1.7 0.9 0 0.5 0.5 0.8 0.4 0.3 1.8 0.8 1.2 0.5 1.8 0.9 0.5 0.4 0.8 0.9 0.2 0.5 0.2 1.2zm6.5 2.9q-2.2 0-3.5-1.3-1.3-1.3-1.3-3.6 0-2.4 1.2-3.8 1.2-1.3 3.3-1.3 1.9 0 3 1.1 1.1 1.2 1.1 3.3v1.1h-6.5q0.1 1.4 0.8 2.1 0.7 0.8 2 0.8 0.9 0 1.6-0.2 0.8-0.1 1.6-0.5v1.7q-0.7 0.3-1.5 0.5-0.8 0.1-1.8 0.1zm-0.3-8.5q-1 0-1.6 0.7-0.6 0.6-0.7 1.8h4.4q0-1.2-0.6-1.8-0.6-0.7-1.5-0.7zm16.1 8.5q-1.9 0-2.9-1.3h-0.1q0.1 1.2 0.1 1.5v4h-2.1v-14.1h1.7q0.1 0.3 0.3 1.3h0.1q1-1.4 2.9-1.4 1.8 0 2.8 1.3 1.1 1.3 1.1 3.7 0 2.4-1.1 3.7-1 1.3-2.8 1.3zm-0.5-8.3q-1.3 0-1.8 0.7-0.6 0.7-0.6 2.3v0.3q0 1.8 0.6 2.6 0.5 0.8 1.8 0.8 1.1 0 1.7-0.9 0.5-0.9 0.5-2.5 0-1.7-0.5-2.5-0.6-0.8-1.7-0.8zm12.8 8.2l-0.4-1.4h-0.1q-0.7 0.9-1.4 1.2-0.7 0.3-1.8 0.3-1.4 0-2.2-0.7-0.8-0.8-0.8-2.2 0-1.5 1.1-2.3 1.1-0.8 3.4-0.8l1.7-0.1v-0.5q0-0.9-0.5-1.4-0.4-0.5-1.3-0.5-0.8 0-1.5 0.3-0.6 0.2-1.3 0.5l-0.6-1.5q0.8-0.4 1.7-0.6 0.9-0.2 1.8-0.2 1.8 0 2.8 0.8 0.9 0.8 0.9 2.5v6.6zm-3.1-1.4q1.2 0 1.8-0.7 0.7-0.6 0.7-1.7v-0.9l-1.2 0.1q-1.5 0-2.2 0.5-0.6 0.4-0.6 1.3 0 0.6 0.4 1 0.4 0.4 1.1 0.4zm6-8.4h2.2l2 5.6q0.5 1.1 0.6 2.2h0.1q0.1-0.5 0.3-1.2 0.2-0.7 2.2-6.6h2.2l-4.1 11.1q-1.1 3-3.8 3-0.7 0-1.3-0.2v-1.6q0.4 0.1 1 0.1 1.5 0 2.1-1.7l0.4-0.9zm19.3 9.7h-2.1v-6q0-1.1-0.4-1.7-0.4-0.5-1.3-0.5-1.2 0-1.8 0.8-0.5 0.7-0.5 2.5v4.9h-2.1v-9.7h1.6l0.3 1.2h0.1q0.4-0.7 1.2-1 0.8-0.4 1.7-0.4 2.2 0 3 1.5h0.1q0.4-0.7 1.2-1.1 0.8-0.4 1.8-0.4 1.8 0 2.5 0.9 0.8 0.8 0.8 2.6v6.4h-2v-6q0-1.1-0.4-1.7-0.5-0.5-1.4-0.5-1.2 0-1.7 0.7-0.6 0.8-0.6 2.3zm13.3 0.2q-2.3 0-3.6-1.3-1.2-1.3-1.2-3.7 0-2.3 1.1-3.7 1.2-1.4 3.3-1.4 1.9 0 3 1.2 1.2 1.2 1.2 3.2v1.1h-6.5q0 1.5 0.7 2.2 0.8 0.8 2.1 0.8 0.8 0 1.6-0.2 0.7-0.2 1.6-0.5v1.7q-0.8 0.3-1.6 0.5-0.7 0.1-1.7 0.1zm-0.4-8.5q-1 0-1.6 0.6-0.6 0.6-0.7 1.8h4.4q0-1.2-0.6-1.8-0.5-0.6-1.5-0.6zm15.1 8.3h-2.1v-5.9q0-1.2-0.5-1.7-0.4-0.6-1.4-0.6-1.3 0-1.9 0.8-0.6 0.8-0.6 2.6v4.8h-2.1v-9.7h1.6l0.3 1.3h0.1q0.5-0.7 1.3-1.1 0.8-0.4 1.8-0.4 3.5 0 3.5 3.6zm6.4-1.5q0.8 0 1.6-0.2v1.5q-0.4 0.2-0.9 0.3-0.6 0.1-1.1 0.1-3 0-3-3.1v-5.3h-1.3v-0.9l1.4-0.7 0.7-2.1h1.3v2.2h2.8v1.5h-2.8v5.2q0 0.8 0.4 1.2 0.3 0.3 0.9 0.3zm16.4 1.5h-2.1v-6q0-1.1-0.4-1.7-0.4-0.5-1.3-0.5-1.2 0-1.8 0.8-0.5 0.7-0.5 2.6v4.8h-2.1v-9.7h1.6l0.3 1.3h0.1q0.4-0.7 1.2-1.1 0.7-0.4 1.7-0.4 2.2 0 2.9 1.5h0.2q0.4-0.7 1.2-1.1 0.8-0.4 1.8-0.4 1.7 0 2.5 0.9 0.8 0.9 0.8 2.7v6.3h-2.1v-6q0-1.1-0.4-1.7-0.4-0.5-1.3-0.5-1.2 0-1.8 0.7-0.5 0.8-0.5 2.3zm13.2 0.2q-2.2 0-3.5-1.3-1.3-1.3-1.3-3.6 0-2.4 1.2-3.8 1.2-1.4 3.3-1.4 1.9 0 3 1.2 1.1 1.2 1.1 3.2v1.2h-6.5q0.1 1.4 0.8 2.1 0.7 0.8 2 0.8 0.9 0 1.6-0.2 0.8-0.1 1.6-0.5v1.7q-0.7 0.3-1.5 0.5-0.8 0.1-1.8 0.1zm-0.3-8.5q-1 0-1.6 0.6-0.6 0.7-0.7 1.9h4.4q0-1.2-0.6-1.9-0.6-0.6-1.5-0.6zm10.1 6.9q0.7 0 1.5-0.3v1.6q-0.3 0.1-0.9 0.2-0.5 0.1-1.1 0.1-2.9 0-2.9-3.1v-5.2h-1.4v-0.9l1.5-0.8 0.7-2h1.2v2.1h2.8v1.6h-2.8v5.2q0 0.7 0.4 1.1 0.4 0.4 1 0.4zm12 1.4h-2.1v-5.9q0-1.2-0.4-1.7-0.5-0.6-1.5-0.6-1.3 0-1.9 0.8-0.6 0.8-0.6 2.6v4.8h-2v-13.6h2v3.4q0 0.9-0.1 1.8h0.1q0.5-0.7 1.2-1.1 0.8-0.4 1.8-0.4 3.5 0 3.5 3.6zm11.5-4.9q0 2.4-1.2 3.7-1.2 1.4-3.4 1.4-1.4 0-2.4-0.6-1.1-0.6-1.6-1.8-0.6-1.1-0.6-2.7 0-2.3 1.2-3.7 1.2-1.3 3.4-1.3 2.1 0 3.4 1.4 1.2 1.3 1.2 3.6zm-7.1 0q0 3.4 2.5 3.4 2.5 0 2.5-3.4 0-3.3-2.5-3.3-1.3 0-1.9 0.9-0.6 0.8-0.6 2.4zm12.8 5.1q-1.9 0-2.9-1.3-1-1.4-1-3.7 0-2.4 1-3.8 1.1-1.3 2.9-1.3 1.9 0 2.9 1.4h0.1q-0.1-1-0.1-1.6v-3.6h2v13.7h-1.6l-0.3-1.3h-0.1q-1 1.5-2.9 1.5zm0.5-1.7q1.3 0 1.9-0.7 0.5-0.7 0.6-2.3v-0.3q0-1.9-0.6-2.6-0.6-0.8-1.9-0.8-1.1 0-1.7 0.9-0.6 0.9-0.6 2.5 0 1.6 0.6 2.5 0.6 0.8 1.7 0.8zm7.1 0.4q0-0.6 0.3-1 0.4-0.3 1-0.3 0.6 0 1 0.3 0.3 0.4 0.3 1 0 0.6-0.3 1-0.4 0.4-1 0.4-0.6 0-1-0.4-0.3-0.4-0.3-1zm0-7.5q0-1.3 1.3-1.3 0.6 0 1 0.3 0.3 0.4 0.3 1 0 0.6-0.3 1-0.4 0.4-1 0.4-0.6 0-1-0.4-0.3-0.4-0.3-1z"/>
</svg>